<svg xmlns="http://www.w3.org/2000/svg">
  <symbol id="bluesky-icon" viewBox="0 0 16 17">
    <g clip-path="url(#bluesky-clip)"><path fill="currentColor" d="M7.75 7.735c-.693-1.348-2.58-3.86-4.334-5.097-1.68-1.187-2.32-.981-2.74-.79C.188 2.065.1 2.812.1 3.251s.241 3.602.398 4.13c.52 1.744 2.367 2.333 4.07 2.145-2.495.37-4.71 1.278-1.805 4.512 3.196 3.309 4.38-.71 4.987-2.746.608 2.036 1.307 5.91 4.93 2.746 2.72-2.746.747-4.143-1.747-4.512 1.702.189 3.55-.4 4.07-2.145.156-.528.397-3.691.397-4.13s-.088-1.186-.575-1.406c-.42-.19-1.06-.395-2.741.79-1.755 1.24-3.64 3.752-4.334 5.099"/></g>
    <defs><clipPath id="bluesky-clip"><path fill="#fff" d="M.1.85h15.3v15.3H.1z"/></clipPath></defs>
  </symbol>
  <symbol id="discord-icon" viewBox="0 0 20 19">
    <path fill="currentColor" d="M16.224 3.768a14.5 14.5 0 0 0-3.67-1.153c-.158.286-.343.67-.47.976a13.5 13.5 0 0 0-4.067 0c-.128-.306-.317-.69-.476-.976A14.4 14.4 0 0 0 3.868 3.77C1.546 7.28.916 10.703 1.231 14.077a14.7 14.7 0 0 0 4.5 2.306q.545-.748.965-1.587a9.5 9.5 0 0 1-1.518-.74q.191-.14.372-.293c2.927 1.369 6.107 1.369 8.999 0q.183.152.372.294-.723.437-1.52.74.418.838.963 1.588a14.6 14.6 0 0 0 4.504-2.308c.37-3.911-.63-7.302-2.644-10.309m-9.13 8.234c-.878 0-1.599-.82-1.599-1.82 0-.998.705-1.82 1.6-1.82.894 0 1.614.82 1.599 1.82.001 1-.705 1.82-1.6 1.82m5.91 0c-.878 0-1.599-.82-1.599-1.82 0-.998.705-1.82 1.6-1.82.893 0 1.614.82 1.599 1.82 0 1-.706 1.82-1.6 1.82"/>
  </symbol>
  <symbol id="documentation-icon" viewBox="0 0 21 20">
    <path fill="none" stroke="#aa3bff" stroke-linecap="round" stroke-linejoin="round" stroke-width="1.35" d="m15.5 13.333 1.533 1.322c.645.555.967.833.967 1.178s-.322.623-.967 1.179L15.5 18.333m-3.333-5-1.534 1.322c-.644.555-.966.833-.966 1.178s.322.623.966 1.179l1.534 1.321"/>
    <path fill="none" stroke="#aa3bff" stroke-linecap="round" stroke-linejoin="round" stroke-width="1.35" d="M17.167 10.836v-4.32c0-1.41 0-2.117-.224-2.68-.359-.906-1.118-1.621-2.08-1.96-.599-.21-1.349-.21-2.848-.21-2.623 0-3.935 0-4.983.369-1.684.591-3.013 1.842-3.641 3.428C3 6.449 3 7.684 3 10.154v2.122c0 2.558 0 3.838.706 4.726q.306.383.713.671c.76.536 1.79.64 3.581.66"/>
    <path fill="none" stroke="#aa3bff" stroke-linecap="round" stroke-linejoin="round" stroke-width="1.35" d="M3 10a2.78 2.78 0 0 1 2.778-2.778c.555 0 1.209.097 1.748-.047.48-.129.854-.503.982-.982.145-.54.048-1.194.048-1.749a2.78 2.78 0 0 1 2.777-2.777"/>
  </symbol>
  <symbol id="github-icon" viewBox="0 0 19 19">
    <path fill="currentColor" fill-rule="evenodd" d="M9.356 1.85C5.05 1.85 1.57 5.356 1.57 9.694a7.84 7.84 0 0 0 5.324 7.44c.387.079.528-.168.528-.376 0-.182-.013-.805-.013-1.454-2.165.467-2.616-.935-2.616-.935-.349-.91-.864-1.143-.864-1.143-.71-.48.051-.48.051-.48.787.051 1.2.805 1.2.805.695 1.194 1.817.857 2.268.649.064-.507.27-.857.49-1.052-1.728-.182-3.545-.857-3.545-3.87 0-.857.31-1.558.8-2.104-.078-.195-.349-1 .077-2.078 0 0 .657-.208 2.14.805a7.5 7.5 0 0 1 1.946-.26c.657 0 1.328.092 1.946.26 1.483-1.013 2.14-.805 2.14-.805.426 1.078.155 1.883.078 2.078.502.546.799 1.247.799 2.104 0 3.013-1.818 3.675-3.558 3.87.284.247.528.714.528 1.454 0 1.052-.012 1.896-.012 2.156 0 .208.142.455.528.377a7.84 7.84 0 0 0 5.324-7.441c.013-4.338-3.48-7.844-7.773-7.844" clip-rule="evenodd"/>
  </symbol>
  <symbol id="social-icon" viewBox="0 0 20 20">
    <path fill="none" stroke="#aa3bff" stroke-linecap="round" stroke-linejoin="round" stroke-width="1.35" d="M12.5 6.667a4.167 4.167 0 1 0-8.334 0 4.167 4.167 0 0 0 8.334 0"/>
    <path fill="none" stroke="#aa3bff" stroke-linecap="round" stroke-linejoin="round" stroke-width="1.35" d="M2.5 16.667a5.833 5.833 0 0 1 8.75-5.053m3.837.474.513 1.035c.07.144.257.282.414.309l.93.155c.596.1.736.536.307.965l-.723.73a.64.64 0 0 0-.152.531l.207.903c.164.715-.213.991-.84.618l-.872-.52a.63.63 0 0 0-.577 0l-.872.52c-.624.373-1.003.094-.84-.618l.207-.903a.64.64 0 0 0-.152-.532l-.723-.729c-.426-.43-.289-.864.306-.964l.93-.156a.64.64 0 0 0 .412-.31l.513-1.034c.28-.562.735-.562 1.012 0"/>
  </symbol>
  <symbol id="x-icon" viewBox="0 0 19 19">
    <path fill="currentColor" fill-rule="evenodd" d="M1.893 1.98c.052.072 1.245 1.769 2.653 3.77l2.892 4.114c.183.261.333.48.333.486s-.068.089-.152.183l-.522.593-.765.867-3.597 4.087c-.375.426-.734.834-.798.905a1 1 0 0 0-.118.148c0 .01.236.017.664.017h.663l.729-.83c.4-.457.796-.906.879-.999a692 692 0 0 0 1.794-2.038c.034-.037.301-.34.594-.675l.551-.624.345-.392a7 7 0 0 1 .34-.374c.006 0 .93 1.306 2.052 2.903l2.084 2.965.045.063h2.275c1.87 0 2.273-.003 2.266-.021-.008-.02-1.098-1.572-3.894-5.547-2.013-2.862-2.28-3.246-2.273-3.266.008-.019.282-.332 2.085-2.38l2-2.274 1.567-1.782c.022-.028-.016-.03-.65-.03h-.674l-.3.342a871 871 0 0 1-1.782 2.025c-.067.075-.405.458-.75.852a100 100 0 0 1-.803.91c-.148.172-.299.344-.99 1.127-.304.343-.32.358-.345.327-.015-.019-.904-1.282-1.976-2.808L6.365 1.85H1.8zm1.782.91 8.078 11.294c.772 1.08 1.413 1.973 1.425 1.984.016.017.241.02 1.05.017l1.03-.004-2.694-3.766L7.796 5.75 5.722 2.852l-1.039-.004-1.039-.004z" clip-rule="evenodd"/>
  </symbol>
  <symbol id="facebook-icon" viewBox="0 0 20 20">
    <path fill="currentColor" d="M11.5 10.5h2.4l.5-3.1H11.5V5.8c0-.9.2-1.5 1.5-1.5h1.6V1.2C13.8 1.1 12.7 1 11.6 1 9.1 1 7.4 2.5 7.4 5.2v2.2H5v3.1h2.4V19h4.1v-8.5z"/>
  </symbol>
  <symbol id="instagram-icon" viewBox="0 0 20 20">
    <path fill="currentColor" d="M10 3.2c2.2 0 2.5 0 3.4.1.8 0 1.3.2 1.6.3.4.2.7.4 1 .7.3.3.5.6.7 1 .1.3.3.8.3 1.6.1.9.1 1.2.1 3.4s0 2.5-.1 3.4c0 .8-.2 1.3-.3 1.6-.2.4-.4.7-.7 1-.3.3-.6.5-1 .7-.3.1-.8.3-1.6.3-.9.1-1.2.1-3.4.1s-2.5 0-3.4-.1c-.8 0-1.3-.2-1.6-.3-.4-.2-.7-.4-1-.7-.3-.3-.5-.6-.7-1-.1-.3-.3-.8-.3-1.6-.1-.9-.1-1.2-.1-3.4s0-2.5.1-3.4c0-.8.2-1.3.3-1.6.2-.4.4-.7.7-1 .3-.3.6-.5 1-.7.3-.1.8-.3 1.6-.3.9-.1 1.2-.1 3.4-.1zm0 1.5c-2.1 0-2.4 0-3.2.1-.7 0-1.1.2-1.4.3-.4.1-.6.3-.9.6-.3.3-.5.5-.6.9-.1.3-.2.7-.3 1.4-.1.8-.1 1.1-.1 3.2s0 2.4.1 3.2c0 .7.2 1.1.3 1.4.1.4.3.6.6.9.3.3.5.5.9.6.3.1.7.2 1.4.3.8.1 1.1.1 3.2.1s2.4 0 3.2-.1c.7 0 1.1-.2 1.4-.3.4-.1.6-.3.9-.6.3-.3.5-.5.6-.9.1-.3.2-.7.3-1.4.1-.8.1-1.1.1-3.2s0-2.4-.1-3.2c0-.7-.2-1.1-.3-1.4-.1-.4-.3-.6-.6-.9-.3-.3-.5-.5-.9-.6-.3-.1-.7-.2-1.4-.3-.8-.1-1.1-.1-3.2-.1zm0 2.8a4.5 4.5 0 1 0 0 9 4.5 4.5 0 0 0 0-9zm0 1.5a3 3 0 1 1 0 6 3 3 0 0 1 0-6zm4.8-3.9a1 1 0 1 0 0 2 1 1 0 0 0 0-2z"/>
  </symbol>
  <symbol id="linkedin-icon" viewBox="0 0 20 20">
    <path fill="currentColor" d="M4.2 6.5H1.5V18h2.7V6.5zM2.8 1.5a1.6 1.6 0 1 0 0 3.2 1.6 1.6 0 0 0 0-3.2zM18 18h-2.7v-5.6c0-1.3 0-3-1.8-3s-2.1 1.4-2.1 2.9V18H8.7V6.5h2.6v1.5h.1c.5-1 1.7-2 3.5-2 3.7 0 4.4 2.4 4.4 5.6V18z"/>
  </symbol>
  <symbol id="youtube-icon" viewBox="0 0 20 20">
    <path fill="currentColor" d="M17.6 5.2a2 2 0 0 0-1.4-1.4C14.8 3.5 10 3.5 10 3.5s-4.8 0-6.2.3A2 2 0 0 0 2.4 5.2 21 21 0 0 0 2 10a21 21 0 0 0 .4 4.8 2 2 0 0 0 1.4 1.4c1.4.3 6.2.3 6.2.3s4.8 0 6.2-.3a2 2 0 0 0 1.4-1.4A21 21 0 0 0 18 10a21 21 0 0 0-.4-4.8zM8.5 12.8V7.2L13 10l-4.5 2.8z"/>
  </symbol>
  <symbol id="tiktok-icon" viewBox="0 0 20 20">
    <path fill="currentColor" d="M13.5 2h2.1v3.4a5 5 0 0 1-3-1V2h.9zm2.1 5.6V14a6.4 6.4 0 1 1-5.6-6.3v2.4a3.9 3.9 0 1 0 2.7 3.7V7.6h2.9z"/>
  </symbol>
  <symbol id="pinterest-icon" viewBox="0 0 20 20">
    <path fill="currentColor" d="M10 1a9 9 0 0 0-3.2 17.4c-.1-.8-.1-1.8 0-2.6l1-4.2s-.3-.6-.3-1.5c0-1.4.8-2.5 1.9-2.5.9 0 1.3.7 1.3 1.5 0 .9-.6 2.3-.9 3.6-.3 1.1.6 2 1.7 2 2 0 3.5-2.1 3.5-5.1 0-2.7-1.9-4.6-4.7-4.6-3.2 0-5.1 2.4-5.1 4.8 0 1 .4 2 .9 2.6.1.1.1.2.1.3l-.3 1.3c0 .2-.1.3-.4.2-1.6-.7-2.6-3-2.6-4.8C2.5 5.8 5.7 2 10 2s7.5 3.8 7.5 8.5-3.4 8.5-7.5 8.5c-.7 0-1.4-.1-2-.3.4-.4.7-1 .9-1.6.3.1.7.2 1.1.2 2.5 0 4.5-2 4.5-4.5S12.5 5 10 5 5.5 7 5.5 9.5 7.5 14 10 14c.5 0 1-.1 1.4-.2-.2.7-.6 1.3-1 1.8A9 9 0 1 0 10 1z"/>
  </symbol>
  <symbol id="whatsapp-icon" viewBox="0 0 20 20">
    <path fill="currentColor" d="M10 1.5a8.5 8.5 0 0 0-7.2 13L1.5 18.5l3.9-1.2A8.5 8.5 0 1 0 10 1.5zm0 1.5a7 7 0 0 1 0 14 7 7 0 0 1-3.6-1l-.5-.3-2.3.7.7-2.2-.3-.5a7 7 0 0 1 5.7-10.7zm3.8 9.8c-.2-.1-1.2-.6-1.4-.7-.2-.1-.4-.1-.5.1s-.6.7-.7.9-.3.1-.5 0a10.5 10.5 0 0 1-3.1-1.9 4 4 0 0 1-.8-1.1c-.1-.2 0-.3.1-.4.1-.1.2-.3.3-.4.1-.1.1-.2.2-.3.1-.1 0-.2 0-.3 0-.1-.5-1.3-.7-1.8-.2-.5-.4-.4-.5-.4h-.4c-.1 0-.3 0-.4.2-.1.2-.6.6-.6 1.4s.6 1.7.7 1.8c.1.2 1.2 1.9 3 2.6.4.2.8.3 1.1.4.5.2.9.2 1.2.1.4-.1 1.2-.5 1.4-.6.2-.1.3-.1.4 0 .1.1.4.6.4.7.1.1.1.2 0 .3z"/>
  </symbol>
  <symbol id="telegram-icon" viewBox="0 0 20 20">
    <path fill="currentColor" d="m17.5 3.5-15 6.5c-.8.3-.8.8-.1 1l3.8 1.2 1.5 4.6c.2.5.7.6 1 .2l2-2.4 4.1 3c.7.4 1.1.2 1.3-.7l2.5-12.4c.3-1.1-.4-1.6-1.3-1.2zm-2.2 2.6-9.8 6.1-.3 3.2-.9-2.7 8.5-6.3c.4-.3-.1-.5-.5-.3z"/>
  </symbol>
  <symbol id="threads-icon" viewBox="0 0 20 20">
    <path fill="currentColor" d="M10 2.5c3.8 0 6.5 2.6 6.5 6.5 0 3.4-2.2 5.8-5.3 5.8-1.3 0-2.3-.3-3-.9l-.2 3.5h-2.4l.6-10.2h2.2l-.1 1.2c.7-.9 1.8-1.4 3.2-1.4 2 0 3.3 1.3 3.5 3.4h-2.3c-.2-1.1-.9-1.7-2-1.7-1.5 0-2.5 1.2-2.5 3.2s1 3.2 2.5 3.2c1.2 0 2-.6 2.2-1.7H7.6c-.3 2.5 2 4.3 4.9 4.3 3.5 0 6-2.5 6-6.5C18.5 5.4 15.2 2.5 10 2.5z"/>
  </symbol>
  <symbol id="snapchat-icon" viewBox="0 0 20 20">
    <path fill="currentColor" d="M10 2c2.2 0 4 1.2 4.8 3.1.5.2.9.5 1.2.9.5.7.5 1.5.2 2.2-.2.4-.5.8-.9 1.1.1.5.1 1-.1 1.5-.4.9-1.3 1.4-2.3 1.5l-.2 1.8c0 .4-.3.7-.7.7H8.1c-.4 0-.7-.3-.7-.7l-.2-1.8c-1-.1-1.9-.6-2.3-1.5-.2-.5-.2-1 0-1.5-.4-.3-.7-.7-.9-1.1-.3-.7-.3-1.5.2-2.2.3-.4.7-.7 1.2-.9C6 3.2 7.8 2 10 2zm-2.5 9.5h5l.1 1.2H7.6l.1-1.2zm-1.2-4.2c.2-.3.5-.5.9-.6.3 1.5 1.5 2.6 3.1 2.8 1.6-.2 2.8-1.3 3.1-2.8.4.1.7.3.9.6.3.4.3 1-.1 1.3-.5.4-1.2.6-2 .7-.1 1.2-.2 2.1-.2 2.4H8.2c0-.3-.1-1.2-.2-2.4-.8-.1-1.5-.3-2-.7-.4-.3-.4-.9-.1-1.3z"/>
  </symbol>
</svg>
